<svg width="24" height="25" viewBox="0 0 24 25" fill="none" xmlns="http://www.w3.org/2000/svg">
<path d="M10.343 4.44269C10.433 3.90069 10.903 3.50269 11.453 3.50269H12.546C13.096 3.50269 13.566 3.90069 13.656 4.44269L13.805 5.33669C13.875 5.76069 14.189 6.10069 14.585 6.26669C14.983 6.43069 15.44 6.40869 15.79 6.15869L16.527 5.63169C16.7438 5.47674 17.0085 5.40376 17.274 5.42573C17.5396 5.44771 17.7887 5.56322 17.977 5.75169L18.75 6.52569C19.14 6.91469 19.19 7.52769 18.87 7.97569L18.343 8.71269C18.093 9.06269 18.071 9.51869 18.236 9.91669C18.401 10.3137 18.741 10.6267 19.166 10.6967L20.059 10.8467C20.602 10.9367 20.999 11.4057 20.999 11.9557V13.0497C20.999 13.5997 20.602 14.0697 20.059 14.1597L19.165 14.3087C18.741 14.3787 18.401 14.6917 18.236 15.0887C18.071 15.4867 18.093 15.9427 18.343 16.2927L18.87 17.0307C19.19 17.4777 19.139 18.0907 18.75 18.4807L17.976 19.2537C17.7877 19.4419 17.5388 19.5572 17.2735 19.5792C17.0082 19.6012 16.7437 19.5284 16.527 19.3737L15.789 18.8467C15.439 18.5967 14.983 18.5747 14.586 18.7397C14.188 18.9047 13.876 19.2447 13.805 19.6687L13.656 20.5627C13.566 21.1047 13.096 21.5027 12.546 21.5027H11.452C10.902 21.5027 10.433 21.1047 10.342 20.5627L10.194 19.6687C10.123 19.2447 9.81002 18.9047 9.41302 18.7387C9.01502 18.5747 8.55902 18.5967 8.20902 18.8467L7.47102 19.3737C7.02402 19.6937 6.41102 19.6427 6.02102 19.2537L5.24802 18.4797C5.05955 18.2913 4.94405 18.0422 4.92207 17.7767C4.90009 17.5112 4.97308 17.2464 5.12802 17.0297L5.65502 16.2927C5.90502 15.9427 5.92702 15.4867 5.76302 15.0887C5.59802 14.6917 5.25702 14.3787 4.83302 14.3087L3.93902 14.1587C3.39702 14.0687 2.99902 13.5987 2.99902 13.0497V11.9557C2.99902 11.4057 3.39702 10.9357 3.93902 10.8457L4.83302 10.6967C5.25702 10.6267 5.59802 10.3137 5.76302 9.91669C5.92802 9.51869 5.90602 9.06269 5.65502 8.71269L5.12902 7.97469C4.97408 7.75793 4.90109 7.49321 4.92307 7.22768C4.94505 6.96214 5.06055 6.71302 5.24902 6.52469L6.02202 5.75169C6.21036 5.56322 6.45948 5.44771 6.72501 5.42573C6.99055 5.40376 7.25527 5.47674 7.47202 5.63169L8.20902 6.15869C8.55902 6.40869 9.01602 6.43069 9.41302 6.26569C9.81002 6.10069 10.123 5.76069 10.193 5.33669L10.343 4.44269Z" stroke="black" stroke-width="1.5" stroke-linecap="round" stroke-linejoin="round"/>
<path d="M15 12.5027C15 13.2983 14.6839 14.0614 14.1213 14.624C13.5587 15.1866 12.7956 15.5027 12 15.5027C11.2044 15.5027 10.4413 15.1866 9.87868 14.624C9.31607 14.0614 9 13.2983 9 12.5027C9 11.707 9.31607 10.944 9.87868 10.3814C10.4413 9.81876 11.2044 9.50269 12 9.50269C12.7956 9.50269 13.5587 9.81876 14.1213 10.3814C14.6839 10.944 15 11.707 15 12.5027Z" stroke="black" stroke-width="1.5" stroke-linecap="round" stroke-linejoin="round"/>
</svg>
