<svg width="21" height="23" viewBox="0 0 21 23" fill="none" xmlns="http://www.w3.org/2000/svg">
<path fill-rule="evenodd" clip-rule="evenodd" d="M10.7968 2.53526C10.6372 2.50675 10.4776 2.50675 10.3179 2.53526C10.164 2.56376 10.0043 2.63788 9.41712 2.92864L4.29742 5.48849C3.24269 6.01301 2.88921 6.20685 2.63836 6.4634C2.39321 6.71426 2.21077 7.01072 2.09674 7.34139C1.97702 7.68347 1.97132 8.08825 1.97132 9.26271V14.7644C1.97132 16.013 1.97702 16.5204 2.05684 16.9309C2.40461 18.6868 3.77861 20.0551 5.53458 20.4086C5.88236 20.477 6.29855 20.4884 7.17654 20.4941V17.1133C7.17654 15.2433 8.69307 13.7325 10.5574 13.7325C12.4217 13.7325 13.9382 15.249 13.9382 17.1133V20.4941C14.8162 20.4941 15.2381 20.477 15.5802 20.4086C17.3361 20.0608 18.7044 18.6868 19.0579 16.9309C19.1377 16.5204 19.1434 16.013 19.1434 14.7644V9.26271C19.1434 8.08255 19.132 7.68347 19.018 7.34139C18.904 7.01072 18.7215 6.71426 18.4764 6.4634C18.2255 6.20685 17.8663 6.01871 16.8173 5.48849L11.6976 2.92864C11.1104 2.63788 10.9508 2.56376 10.7968 2.53526ZM10.0272 1.00162C10.3749 0.938911 10.7341 0.938911 11.0819 1.00162C11.481 1.07574 11.8458 1.25818 12.3133 1.49193C12.3419 1.50333 12.3647 1.52044 12.3932 1.53184L17.5129 4.09169C17.5528 4.1145 17.5927 4.1316 17.6326 4.1487C18.522 4.5934 19.132 4.89556 19.5938 5.36877C19.9986 5.78496 20.3065 6.28096 20.4946 6.82828C20.7056 7.44972 20.7056 8.13386 20.7056 9.12588C20.7056 9.17149 20.7056 9.2114 20.7056 9.25701V14.7587C20.7056 14.7929 20.7056 14.8271 20.7056 14.8613C20.7056 15.9731 20.7056 16.6458 20.5915 17.2273C20.1183 19.599 18.2654 21.4576 15.888 21.9308C15.3065 22.0449 14.6337 22.0449 13.522 22.0449C13.4878 22.0449 13.4536 22.0449 13.4194 22.0449C13.4194 22.0449 13.4194 22.0449 13.4137 22.0449C13.3909 22.0449 13.2769 22.0449 13.1742 22.0278C12.7808 21.9479 12.473 21.6458 12.3989 21.2524C12.3761 21.1441 12.3818 21.0357 12.3818 21.0129V21.0072V17.1019C12.3818 16.0985 11.5665 15.2775 10.5574 15.2775C9.54825 15.2775 8.73298 16.0928 8.73298 17.1019V21.0072C8.73298 21.0072 8.73298 21.0072 8.73298 21.0129C8.73298 21.0357 8.73298 21.1498 8.71587 21.2524C8.63605 21.6458 8.33389 21.9536 7.94051 22.0278C7.83218 22.0506 7.72386 22.0449 7.70105 22.0449H7.69535C7.66114 22.0449 7.62694 22.0449 7.59273 22.0449C6.48669 22.0449 5.80824 22.0449 5.22672 21.9308C2.85501 21.4576 0.996406 19.6047 0.523204 17.2273C0.40918 16.6458 0.40918 15.9731 0.40918 14.8613C0.40918 14.8271 0.40918 14.7929 0.40918 14.7587V9.25701C0.40918 9.2114 0.40918 9.16579 0.40918 9.12588C0.40918 8.13386 0.40918 7.44972 0.620125 6.82828C0.808266 6.28096 1.11613 5.78496 1.52092 5.36877C1.98272 4.90127 2.59275 4.5934 3.48214 4.1487C3.52205 4.1316 3.56196 4.1088 3.60187 4.09169L8.72157 1.53184C8.75008 1.52044 8.77859 1.50333 8.80139 1.49193C9.26889 1.25818 9.63377 1.07574 10.0272 1.00162Z" fill="#FDFDFD"/>
</svg>
