<svg width="29" height="27" viewBox="0 0 29 27" fill="none" xmlns="http://www.w3.org/2000/svg">
<path d="M1.40918 25.4299H27.1137M3.38645 1.70264V25.4299M17.2274 1.70264V25.4299M25.1365 7.63445V25.4299M7.341 6.64582H8.32963M7.341 10.6004H8.32963M7.341 14.5549H8.32963M12.2842 6.64582H13.2728M12.2842 10.6004H13.2728M12.2842 14.5549H13.2728M7.341 25.4299V20.981C7.341 20.1625 8.00536 19.4981 8.82395 19.4981H11.7899C12.6085 19.4981 13.2728 20.1625 13.2728 20.981V25.4299M2.39782 1.70264H18.216M17.2274 7.63445H26.1251M21.1819 12.5776H21.1925V12.5882H21.1819V12.5776ZM21.1819 16.5322H21.1925V16.5427H21.1819V16.5322ZM21.1819 20.4867H21.1925V20.4973H21.1819V20.4867Z" stroke="#6E6C6C" stroke-width="1.97727" stroke-linecap="round" stroke-linejoin="round"/>
</svg>
