<svg width="29" height="29" viewBox="0 0 29 29" fill="none" xmlns="http://www.w3.org/2000/svg">
<path d="M12.1713 4.61087C12.2767 3.97654 12.8267 3.51074 13.4704 3.51074H14.7496C15.3933 3.51074 15.9434 3.97654 16.0487 4.61087L16.2231 5.65716C16.305 6.15339 16.6725 6.55131 17.136 6.74559C17.6017 6.93752 18.1366 6.91177 18.5462 6.61919L19.4088 6.00241C19.6624 5.82107 19.9723 5.73566 20.283 5.76138C20.5938 5.7871 20.8854 5.92228 21.1058 6.14286L22.0105 7.04871C22.4669 7.50397 22.5254 8.22139 22.1509 8.74571L21.5341 9.60826C21.2415 10.0179 21.2158 10.5516 21.4089 11.0174C21.602 11.482 21.9999 11.8483 22.4973 11.9302L23.5424 12.1058C24.1779 12.2111 24.6426 12.76 24.6426 13.4037V14.6841C24.6426 15.3277 24.1779 15.8778 23.5424 15.9831L22.4961 16.1575C21.9999 16.2395 21.602 16.6058 21.4089 17.0704C21.2158 17.5362 21.2415 18.0699 21.5341 18.4795L22.1509 19.3432C22.5254 19.8664 22.4657 20.5838 22.0105 21.0402L21.1046 21.9449C20.8843 22.1652 20.5929 22.3002 20.2824 22.3259C19.9719 22.3516 19.6624 22.2664 19.4088 22.0853L18.545 21.4686C18.1354 21.176 17.6017 21.1502 17.1371 21.3433C16.6713 21.5364 16.3062 21.9344 16.2231 22.4306L16.0487 23.4769C15.9434 24.1112 15.3933 24.577 14.7496 24.577H13.4692C12.8256 24.577 12.2767 24.1112 12.1702 23.4769L11.997 22.4306C11.9139 21.9344 11.5475 21.5364 11.0829 21.3422C10.6171 21.1502 10.0834 21.176 9.67381 21.4686L8.81009 22.0853C8.28695 22.4599 7.56952 22.4002 7.11309 21.9449L6.20841 21.039C5.98783 20.8186 5.85265 20.5271 5.82693 20.2163C5.80121 19.9055 5.88663 19.5957 6.06797 19.342L6.68474 18.4795C6.97733 18.0699 7.00307 17.5362 6.81114 17.0704C6.61803 16.6058 6.21894 16.2395 5.72271 16.1575L4.67642 15.982C4.04209 15.8766 3.57629 15.3266 3.57629 14.6841V13.4037C3.57629 12.76 4.04209 12.2099 4.67642 12.1046L5.72271 11.9302C6.21894 11.8483 6.61803 11.482 6.81114 11.0174C7.00424 10.5516 6.9785 10.0179 6.68474 9.60826L6.06914 8.74454C5.8878 8.49086 5.80238 8.18105 5.8281 7.87028C5.85382 7.55951 5.989 7.26796 6.20958 7.04753L7.11426 6.14286C7.33468 5.92228 7.62623 5.7871 7.937 5.76138C8.24777 5.73566 8.55758 5.82107 8.81126 6.00241L9.67381 6.61919C10.0834 6.91177 10.6183 6.93752 11.0829 6.74441C11.5475 6.55131 11.9139 6.15339 11.9958 5.65716L12.1713 4.61087Z" stroke="#FDFDFD" stroke-width="1.75552" stroke-linecap="round" stroke-linejoin="round"/>
<path d="M17.6215 14.0438C17.6215 14.9749 17.2515 15.868 16.5931 16.5264C15.9346 17.1849 15.0416 17.5548 14.1104 17.5548C13.1792 17.5548 12.2862 17.1849 11.6277 16.5264C10.9693 15.868 10.5994 14.9749 10.5994 14.0438C10.5994 13.1126 10.9693 12.2195 11.6277 11.5611C12.2862 10.9026 13.1792 10.5327 14.1104 10.5327C15.0416 10.5327 15.9346 10.9026 16.5931 11.5611C17.2515 12.2195 17.6215 13.1126 17.6215 14.0438Z" stroke="#FDFDFD" stroke-width="1.75552" stroke-linecap="round" stroke-linejoin="round"/>
</svg>
