<svg width="29" height="26" viewBox="0 0 29 26" fill="none" xmlns="http://www.w3.org/2000/svg">
<path d="M28.2022 13.244C28.2022 11.9883 27.1806 10.9666 25.9248 10.9666H4.28422V3.56466C4.28422 2.71258 4.97742 2.01938 5.82951 2.01938H6.23407C6.6527 2.01938 7.04767 2.18955 7.33449 2.48002L7.26591 2.54859C6.11414 3.70037 6.11414 5.57435 7.26591 6.72624L7.65663 7.11696C7.82887 7.2892 8.05464 7.37538 8.28053 7.37538C8.50641 7.37538 8.73206 7.28932 8.90442 7.11696L12.7621 3.25927C13.1066 2.9148 13.1066 2.35609 12.7621 2.01161L12.3714 1.62089C11.8135 1.06291 11.0717 0.755695 10.2827 0.755695C9.67955 0.755695 9.10433 0.935701 8.61748 1.2695C8.00123 0.630553 7.14417 0.254883 6.23419 0.254883H5.82963C4.00456 0.254883 2.51973 1.7396 2.51973 3.56479V10.9779C1.36686 11.089 0.462341 12.0628 0.462341 13.2441C0.462341 14.2101 1.06803 15.0357 1.9189 15.3659V18.2737C1.9189 20.8383 3.74433 22.9847 6.16415 23.4821L5.40723 24.239C5.06275 24.5835 5.06275 25.1421 5.40723 25.4866C5.57946 25.6588 5.80523 25.745 6.03112 25.745C6.25701 25.745 6.48265 25.6589 6.65501 25.4866L8.55193 23.5906H20.1121L22.0097 25.4866C22.1818 25.6588 22.4075 25.745 22.6336 25.745C22.8593 25.745 23.0851 25.6589 23.2574 25.4866C23.6019 25.1421 23.6019 24.5835 23.2574 24.239L22.5005 23.4821C24.9206 22.9847 26.7459 20.8384 26.7459 18.2737V15.3659C27.5964 15.0354 28.2022 14.2101 28.2022 13.244ZM10.2827 2.52007C10.4873 2.52007 10.684 2.57129 10.858 2.66779L8.31354 5.21227C8.06411 4.76013 8.13087 4.17897 8.51382 3.79613L9.44164 2.86831C9.66632 2.64376 9.96503 2.52007 10.2827 2.52007ZM2.73979 12.7313H25.9248C26.2076 12.7313 26.4377 12.9613 26.4377 13.2442C26.4377 13.5269 26.2076 13.757 25.9248 13.757H2.73979C2.45697 13.757 2.22696 13.5269 2.22696 13.2442C2.22696 12.9613 2.45697 12.7313 2.73979 12.7313ZM24.981 18.2736C24.981 20.2324 23.3872 21.8261 21.4281 21.8261H7.2363C5.27723 21.8261 3.68339 20.2325 3.68339 18.2736V15.5468H24.981V18.2736Z" fill="#6E6C6C"/>
<path d="M11.6365 9.16789C11.72 9.2514 11.8294 9.29316 11.9388 9.29316C12.0483 9.29316 12.1577 9.2514 12.2412 9.16789C12.4082 9.00088 12.4082 8.7302 12.2412 8.56318L11.8103 8.13228C11.6433 7.96526 11.3726 7.96526 11.2056 8.13228C11.0386 8.2993 11.0386 8.56998 11.2056 8.737L11.6365 9.16789Z" fill="#6E6C6C"/>
<path d="M12.929 8.73689L13.3599 9.16779C13.4434 9.2513 13.5527 9.29305 13.6622 9.29305C13.7717 9.29305 13.8812 9.2513 13.9647 9.16779C14.1316 9.00077 14.1316 8.72997 13.9647 8.56295L13.5338 8.13205C13.3668 7.96504 13.096 7.96516 12.929 8.13205C12.762 8.29919 12.762 8.56987 12.929 8.73689Z" fill="#6E6C6C"/>
<path d="M11.3794 6.83955L10.9485 6.40865C10.7815 6.24163 10.5108 6.24163 10.3438 6.40865C10.1768 6.57567 10.1768 6.84622 10.3438 7.01336L10.7747 7.44426C10.8582 7.52777 10.9675 7.56953 11.077 7.56953C11.1865 7.56953 11.2959 7.52777 11.3794 7.44426C11.5464 7.27736 11.5464 7.00657 11.3794 6.83955Z" fill="#6E6C6C"/>
<path d="M12.6721 6.40865C12.505 6.24163 12.2344 6.24163 12.0673 6.40865C11.9003 6.57567 11.9003 6.84622 12.0673 7.01336L12.4982 7.44426C12.5817 7.52777 12.6911 7.56953 12.8006 7.56953C12.9101 7.56953 13.0194 7.52777 13.103 7.44426C13.27 7.27724 13.27 7.00657 13.103 6.83955L12.6721 6.40865Z" fill="#6E6C6C"/>
<path d="M12.0414 4.6592C11.8745 4.82622 11.8745 5.09702 12.0414 5.26403L12.4723 5.69493C12.5558 5.77844 12.6651 5.8202 12.7746 5.8202C12.8841 5.8202 12.9936 5.77844 13.0771 5.69493C13.244 5.52791 13.244 5.25712 13.0771 5.0901L12.6462 4.6592C12.4792 4.49218 12.2084 4.49218 12.0414 4.6592Z" fill="#6E6C6C"/>
<path d="M14.1383 6.92896C14.2219 7.01247 14.3312 7.05422 14.4407 7.05422C14.5502 7.05422 14.6597 7.01247 14.7432 6.92896C14.9101 6.76194 14.9101 6.49114 14.7432 6.32412L14.3123 5.89322C14.1453 5.72621 13.8745 5.72633 13.7074 5.89322C13.5406 6.06024 13.5406 6.33104 13.7074 6.49806L14.1383 6.92896Z" fill="#6E6C6C"/>
</svg>
