<svg width="942" height="201" viewBox="0 0 942 201" fill="none" xmlns="http://www.w3.org/2000/svg">
<rect x="100" y="99.5027" width="800" height="1" rx="0.5" fill="#D9D9D9"/>
<g filter="url(#filter0_d_18_140)">
<rect x="78" y="76.5027" width="47.9738" height="44.862" rx="22.431" fill="#1ACCFC"/>
</g>
<g filter="url(#filter1_i_18_140)">
<rect x="480.36" y="76.5027" width="47.9738" height="44.862" rx="22.431" fill="#FDFDFD"/>
</g>
<rect x="481.36" y="77.5027" width="45.9738" height="42.862" rx="21.431" stroke="#DCDCDC" stroke-opacity="0.89" stroke-width="2"/>
<g filter="url(#filter2_i_18_140)">
<rect x="882.72" y="76.5027" width="47.9738" height="44.862" rx="22.431" fill="#FDFDFD"/>
</g>
<rect x="883.72" y="77.5027" width="45.9738" height="42.862" rx="21.431" stroke="#DCDCDC" stroke-opacity="0.89" stroke-width="2"/>
<path d="M102 95.5027V101.503M105 98.5027H99M111 98.5027C111 99.6846 110.767 100.855 110.315 101.947C109.863 103.039 109.2 104.031 108.364 104.867C107.528 105.702 106.536 106.365 105.444 106.818C104.352 107.27 103.182 107.503 102 107.503C100.818 107.503 99.6478 107.27 98.5558 106.818C97.4639 106.365 96.4718 105.702 95.636 104.867C94.8003 104.031 94.1374 103.039 93.6851 101.947C93.2328 100.855 93 99.6846 93 98.5027C93 96.1157 93.9482 93.8266 95.636 92.1387C97.3239 90.4509 99.6131 89.5027 102 89.5027C104.387 89.5027 106.676 90.4509 108.364 92.1387C110.052 93.8266 111 96.1157 111 98.5027Z" stroke="black" stroke-width="1.5" stroke-linecap="round" stroke-linejoin="round"/>
<path d="M506.857 103.585C508.72 103.364 510.551 102.924 512.311 102.275C510.82 100.623 509.997 98.4772 510 96.2527V95.5027C510 93.9114 509.368 92.3853 508.243 91.26C507.117 90.1348 505.591 89.5027 504 89.5027C502.409 89.5027 500.883 90.1348 499.757 91.26C498.632 92.3853 498 93.9114 498 95.5027V96.2527C498.003 98.4773 497.179 100.624 495.688 102.275C497.421 102.915 499.248 103.36 501.143 103.585M506.857 103.585C504.959 103.81 503.041 103.81 501.143 103.585M506.857 103.585C507.001 104.035 507.037 104.512 506.962 104.978C506.886 105.445 506.702 105.887 506.423 106.268C506.145 106.65 505.78 106.96 505.359 107.174C504.938 107.388 504.472 107.5 504 107.5C503.528 107.5 503.062 107.388 502.641 107.174C502.22 106.96 501.855 106.65 501.577 106.268C501.298 105.887 501.114 105.445 501.038 104.978C500.963 104.512 500.999 104.035 501.143 103.585M495.124 94.0027C495.406 92.3277 496.158 90.7671 497.292 89.5027M510.708 89.5027C511.842 90.7671 512.594 92.3277 512.876 94.0027" stroke="black" stroke-width="1.5" stroke-linecap="round" stroke-linejoin="round"/>
<path d="M905.343 90.4427C905.433 89.9007 905.903 89.5027 906.453 89.5027H907.546C908.096 89.5027 908.566 89.9007 908.656 90.4427L908.805 91.3367C908.875 91.7607 909.189 92.1007 909.585 92.2667C909.983 92.4307 910.44 92.4087 910.79 92.1587L911.527 91.6317C911.744 91.4767 912.008 91.4038 912.274 91.4257C912.54 91.4477 912.789 91.5632 912.977 91.7517L913.75 92.5257C914.14 92.9147 914.19 93.5277 913.87 93.9757L913.343 94.7127C913.093 95.0627 913.071 95.5187 913.236 95.9167C913.401 96.3137 913.741 96.6267 914.166 96.6967L915.059 96.8467C915.602 96.9367 915.999 97.4057 915.999 97.9557V99.0497C915.999 99.5997 915.602 100.07 915.059 100.16L914.165 100.309C913.741 100.379 913.401 100.692 913.236 101.089C913.071 101.487 913.093 101.943 913.343 102.293L913.87 103.031C914.19 103.478 914.139 104.091 913.75 104.481L912.976 105.254C912.788 105.442 912.539 105.557 912.274 105.579C912.008 105.601 911.744 105.528 911.527 105.374L910.789 104.847C910.439 104.597 909.983 104.575 909.586 104.74C909.188 104.905 908.876 105.245 908.805 105.669L908.656 106.563C908.566 107.105 908.096 107.503 907.546 107.503H906.452C905.902 107.503 905.433 107.105 905.342 106.563L905.194 105.669C905.123 105.245 904.81 104.905 904.413 104.739C904.015 104.575 903.559 104.597 903.209 104.847L902.471 105.374C902.024 105.694 901.411 105.643 901.021 105.254L900.248 104.48C900.06 104.291 899.944 104.042 899.922 103.777C899.9 103.511 899.973 103.246 900.128 103.03L900.655 102.293C900.905 101.943 900.927 101.487 900.763 101.089C900.598 100.692 900.257 100.379 899.833 100.309L898.939 100.159C898.397 100.069 897.999 99.5987 897.999 99.0497V97.9557C897.999 97.4057 898.397 96.9357 898.939 96.8457L899.833 96.6967C900.257 96.6267 900.598 96.3137 900.763 95.9167C900.928 95.5187 900.906 95.0627 900.655 94.7127L900.129 93.9747C899.974 93.7579 899.901 93.4932 899.923 93.2277C899.945 92.9621 900.061 92.713 900.249 92.5247L901.022 91.7517C901.21 91.5632 901.459 91.4477 901.725 91.4257C901.991 91.4038 902.255 91.4767 902.472 91.6317L903.209 92.1587C903.559 92.4087 904.016 92.4307 904.413 92.2657C904.81 92.1007 905.123 91.7607 905.193 91.3367L905.343 90.4427Z" stroke="black" stroke-width="1.5" stroke-linecap="round" stroke-linejoin="round"/>
<path d="M910 98.5027C910 99.2983 909.684 100.061 909.121 100.624C908.559 101.187 907.796 101.503 907 101.503C906.204 101.503 905.441 101.187 904.879 100.624C904.316 100.061 904 99.2983 904 98.5027C904 97.707 904.316 96.944 904.879 96.3814C905.441 95.8188 906.204 95.5027 907 95.5027C907.796 95.5027 908.559 95.8188 909.121 96.3814C909.684 96.944 910 97.707 910 98.5027Z" stroke="black" stroke-width="1.5" stroke-linecap="round" stroke-linejoin="round"/>
<defs>
<filter id="filter0_d_18_140" x="0.818639" y="0.0992782" width="203.374" height="200.262" filterUnits="userSpaceOnUse" color-interpolation-filters="sRGB">
<feFlood flood-opacity="0" result="BackgroundImageFix"/>
<feColorMatrix in="SourceAlpha" type="matrix" values="0 0 0 0 0 0 0 0 0 0 0 0 0 0 0 0 0 0 127 0" result="hardAlpha"/>
<feMorphology radius="11" operator="dilate" in="SourceAlpha" result="effect1_dropShadow_18_140"/>
<feOffset dx="0.518636" dy="1.29659"/>
<feGaussianBlur stdDeviation="33.35"/>
<feComposite in2="hardAlpha" operator="out"/>
<feColorMatrix type="matrix" values="0 0 0 0 0.101961 0 0 0 0 0.8 0 0 0 0 0.988235 0 0 0 0.41 0"/>
<feBlend mode="normal" in2="BackgroundImageFix" result="effect1_dropShadow_18_140"/>
<feBlend mode="normal" in="SourceGraphic" in2="effect1_dropShadow_18_140" result="shape"/>
</filter>
<filter id="filter1_i_18_140" x="480.36" y="76.5027" width="48.4925" height="45.8215" filterUnits="userSpaceOnUse" color-interpolation-filters="sRGB">
<feFlood flood-opacity="0" result="BackgroundImageFix"/>
<feBlend mode="normal" in="SourceGraphic" in2="BackgroundImageFix" result="shape"/>
<feColorMatrix in="SourceAlpha" type="matrix" values="0 0 0 0 0 0 0 0 0 0 0 0 0 0 0 0 0 0 127 0" result="hardAlpha"/>
<feMorphology radius="1.94488" operator="dilate" in="SourceAlpha" result="effect1_innerShadow_18_140"/>
<feOffset dx="0.518636" dy="1.29659"/>
<feGaussianBlur stdDeviation="1.45218"/>
<feComposite in2="hardAlpha" operator="arithmetic" k2="-1" k3="1"/>
<feColorMatrix type="matrix" values="0 0 0 0 0 0 0 0 0 0 0 0 0 0 0 0 0 0 0.55 0"/>
<feBlend mode="normal" in2="shape" result="effect1_innerShadow_18_140"/>
</filter>
<filter id="filter2_i_18_140" x="882.72" y="76.5027" width="48.4925" height="45.8215" filterUnits="userSpaceOnUse" color-interpolation-filters="sRGB">
<feFlood flood-opacity="0" result="BackgroundImageFix"/>
<feBlend mode="normal" in="SourceGraphic" in2="BackgroundImageFix" result="shape"/>
<feColorMatrix in="SourceAlpha" type="matrix" values="0 0 0 0 0 0 0 0 0 0 0 0 0 0 0 0 0 0 127 0" result="hardAlpha"/>
<feMorphology radius="1.94488" operator="dilate" in="SourceAlpha" result="effect1_innerShadow_18_140"/>
<feOffset dx="0.518636" dy="1.29659"/>
<feGaussianBlur stdDeviation="1.45218"/>
<feComposite in2="hardAlpha" operator="arithmetic" k2="-1" k3="1"/>
<feColorMatrix type="matrix" values="0 0 0 0 0 0 0 0 0 0 0 0 0 0 0 0 0 0 0.55 0"/>
<feBlend mode="normal" in2="shape" result="effect1_innerShadow_18_140"/>
</filter>
</defs>
</svg>
