<svg width="27" height="27" viewBox="0 0 27 27" fill="none" xmlns="http://www.w3.org/2000/svg">
<path d="M17.3062 13.6987C16.2723 13.6987 15.2726 13.237 14.4901 12.3992C13.7292 11.582 13.2645 10.4923 13.1826 9.33161C13.0951 8.09351 13.4727 6.95498 14.2457 6.12523C15.0186 5.29547 16.0993 4.8479 17.3062 4.8479C18.5046 4.8479 19.5883 5.30351 20.3587 6.13126C21.1367 6.96705 21.5154 8.10357 21.4279 9.33111C21.3439 10.4933 20.8797 11.5825 20.1204 12.3987C19.3399 13.237 18.3407 13.6987 17.3062 13.6987Z" fill="#6E6C6C"/>
<path d="M23.9359 22.5494H10.6774C10.4642 22.5505 10.2536 22.5028 10.0618 22.4097C9.87004 22.3167 9.70214 22.1809 9.57105 22.0128C9.43201 21.8306 9.33598 21.6193 9.29018 21.3947C9.24437 21.1701 9.24996 20.938 9.30653 20.7159C9.72996 19.0156 10.779 17.6055 12.3399 16.6385C13.7254 15.7806 15.489 15.3079 17.3064 15.3079C19.1595 15.3079 20.8769 15.7605 22.2704 16.6179C23.8349 17.5799 24.8854 18.998 25.3068 20.7189C25.3627 20.9412 25.3677 21.1732 25.3213 21.3977C25.275 21.6222 25.1786 21.8333 25.0393 22.0153C24.9083 22.1827 24.7408 22.3178 24.5496 22.4103C24.3583 22.5029 24.1484 22.5505 23.9359 22.5494Z" fill="#6E6C6C"/>
<path d="M7.80118 13.8997C6.03153 13.8997 4.47561 12.2543 4.33128 10.2322C4.25987 9.19624 4.58272 8.23825 5.23647 7.53572C5.88318 6.84023 6.79541 6.45703 7.80118 6.45703C8.80695 6.45703 9.71214 6.84224 10.3624 7.54175C11.0211 8.24981 11.343 9.2058 11.2676 10.2332C11.1232 12.2548 9.56781 13.8997 7.80118 13.8997Z" fill="#6E6C6C"/>
<path d="M11.1035 15.4812C10.219 15.0488 9.07087 14.8325 7.80209 14.8325C6.3206 14.8325 4.88185 15.2187 3.75036 15.9198C2.4675 16.7158 1.60455 17.875 1.25605 19.2745C1.20505 19.4758 1.20023 19.686 1.24194 19.8895C1.28366 20.0929 1.37083 20.2842 1.49693 20.4492C1.61659 20.6028 1.76989 20.727 1.94504 20.8121C2.12018 20.8971 2.31251 20.9409 2.50723 20.94H8.08924C8.18345 20.94 8.27468 20.907 8.347 20.8466C8.41933 20.7862 8.46817 20.7023 8.48501 20.6097C8.49054 20.578 8.49758 20.5463 8.50563 20.5151C8.93207 18.8023 9.9313 17.355 11.4078 16.2999C11.4621 16.2608 11.5058 16.2087 11.5348 16.1484C11.5639 16.0881 11.5775 16.0215 11.5744 15.9547C11.5712 15.8878 11.5515 15.8228 11.5168 15.7655C11.4822 15.7082 11.4338 15.6604 11.3761 15.6266C11.2971 15.5803 11.2066 15.5315 11.1035 15.4812Z" fill="#6E6C6C"/>
</svg>
